<?xml version="1.0" standalone="no"?>
<!DOCTYPE svg PUBLIC "-//W3C//DTD SVG 1.1//EN" "http://www.w3.org/Graphics/SVG/1.1/DTD/svg11.dtd" >
<svg xmlns="http://www.w3.org/2000/svg" width="512" height="512" viewBox="0 0 512 512" data-svgdocument="" id="_Vu_n21r4i8YQsOUFY7Pak" class="fl-svgdocument" x="0" y="0" overflow="hidden" data-bbox="115.17493438720703 29.554386854171753 253.99888757976805 48.467968463897705" style="">
	<defs id="_oQITUVK8J_vnvryxEsBQX" transform="matrix(0.7966864109039307, 0, 0, 0.7966864109039307, -30.7750244140625, 161.43264770507812)"></defs>
	<path text="text|" text-anchor="middle" font-size="100" letter-spacing="0" side="left" offset="0.5" dx="0" dy="0" space="preserve" href="" font-family="Ubuntu" font-scale="contain" transform="matrix(0.4071412980556488, 0, 0, 0.4071412980556488, 217.7872772216797, 61.43355178833008)" x="0" y="0" fill="#fefefe" data-fl-textpath="" id="_fOU6kpe3PPhIlda_Y4qMd" font-weight="400" font-style="normal" d="M-90.45-68.1L-90.45-52L-70.75-52L-70.75-44.2L-90.45-44.2L-90.45-20.2Q-90.45-16.3 -89.85000000000001-13.75Q-89.25-11.2 -88.05000000000001-9.75Q-86.85000000000001-8.3 -85.05000000000001-7.7Q-83.25-7.1 -80.85000000000001-7.1L-80.85000000000001-7.1Q-76.65-7.1 -74.10000000000001-8.05Q-71.55000000000001-9 -70.55000000000001-9.4L-70.55000000000001-9.4L-68.75-1.7Q-70.15-1 -73.65 0.05Q-77.15 1.1 -81.65 1.1L-81.65 1.1Q-86.95 1.1 -90.4-0.25Q-93.85000000000001-1.6 -95.95-4.3Q-98.05000000000001-7 -98.9-10.95Q-99.75-14.9 -99.75-20.1L-99.75-20.1L-99.75-66.5L-90.45-68.1ZM-62.850000000000016-25.9L-62.850000000000016-25.9Q-62.850000000000016-32.8 -60.850000000000016-37.95Q-58.850000000000016-43.1 -55.55000000000002-46.5Q-52.250000000000014-49.9 -47.95000000000002-51.6Q-43.65000000000002-53.3 -39.15000000000002-53.3L-39.15000000000002-53.3Q-28.65000000000002-53.3 -23.05000000000002-46.75Q-17.450000000000017-40.2 -17.450000000000017-26.8L-17.450000000000017-26.8Q-17.450000000000017-26.2 -17.450000000000017-25.25Q-17.450000000000017-24.3 -17.55000000000002-23.5L-17.55000000000002-23.5L-53.15000000000002-23.5Q-52.55000000000002-15.4 -48.45000000000002-11.2Q-44.350000000000016-7 -35.65000000000002-7L-35.65000000000002-7Q-30.750000000000014-7 -27.40000000000002-7.85Q-24.05000000000002-8.7 -22.350000000000016-9.5L-22.350000000000016-9.5L-21.05000000000002-1.7Q-22.750000000000014-0.8 -27.000000000000014 0.2Q-31.250000000000014 1.2 -36.65000000000002 1.2L-36.65000000000002 1.2Q-43.45000000000002 1.2 -48.40000000000002-0.85Q-53.350000000000016-2.9 -56.55000000000002-6.5Q-59.750000000000014-10.1 -61.30000000000002-15.05Q-62.850000000000016-20 -62.850000000000016-25.9ZM-52.95000000000002-31L-27.15000000000002-31Q-27.05000000000002-37.3 -30.30000000000002-41.35Q-33.55000000000002-45.4 -39.250000000000014-45.4L-39.250000000000014-45.4Q-42.45000000000002-45.4 -44.90000000000002-44.15Q-47.350000000000016-42.9 -49.05000000000002-40.9Q-50.750000000000014-38.9 -51.70000000000002-36.3Q-52.65000000000002-33.7 -52.95000000000002-31L-52.95000000000002-31ZM 37.249999999999986 0L 27.04999999999999 0Q 25.94999999999999-2.2  24.349999999999987-4.9Q 22.749999999999986-7.6  20.849999999999987-10.45Q 18.94999999999999-13.3  16.94999999999999-16.1Q 14.949999999999989-18.9  13.04999999999999-21.4L 13.04999999999999-21.4Q 11.149999999999988-18.9  9.149999999999988-16.05Q 7.149999999999988-13.2  5.29999999999999-10.35Q 3.4499999999999886-7.5  1.849999999999989-4.8Q 0.24999999999998934-2.1 -0.8500000000000121 0L-0.8500000000000121 0L-10.450000000000012 0Q-6.950000000000012-6.8 -2.100000000000012-13.85Q 2.7499999999999893-20.9  7.54999999999999-27.3L 7.54999999999999-27.3L-9.650000000000011-52L 0.849999999999989-52L 13.24999999999999-33.8L 25.749999999999986-52L 35.64999999999999-52L 18.849999999999987-27.9Q 23.64999999999999-21.4  28.69999999999999-14.15Q 33.749999999999986-6.9  37.249999999999986 0L 37.249999999999986 0ZM 55.749999999999986-68.1L 55.749999999999986-52L 75.44999999999999-52L 75.44999999999999-44.2L 55.749999999999986-44.2L 55.749999999999986-20.2Q 55.749999999999986-16.3  56.349999999999994-13.75Q 56.94999999999999-11.2  58.14999999999999-9.75Q 59.349999999999994-8.3  61.14999999999999-7.7Q 62.94999999999999-7.1  65.35-7.1L 65.35-7.1Q 69.54999999999998-7.1  72.1-8.05Q 74.64999999999999-9  75.64999999999999-9.4L 75.64999999999999-9.4L 77.44999999999999-1.7Q 76.04999999999998-1  72.54999999999998 0.05Q 69.04999999999998 1.1  64.54999999999998 1.1L 64.54999999999998 1.1Q 59.249999999999986 1.1  55.79999999999999-0.25Q 52.349999999999994-1.6  50.249999999999986-4.3Q 48.14999999999999-7  47.29999999999999-10.95Q 46.44999999999999-14.9  46.44999999999999-20.1L 46.44999999999999-20.1L 46.44999999999999-66.5L 55.749999999999986-68.1ZM 88.85 18.5L 88.85-78.3L 97.55-78.3L 97.55 18.5L 88.85 18.5Z"></path>
	<g transform="matrix(2.203089475631714, 0, 0, 2.203089475631714, 115.17493438720703, 27.35129737854004)"><path fill="none" stroke="#fefefe" stroke-linecap="round" stroke-linejoin="round" data-name="Rectangle" rx="1.5" ry="1.5" stroke-width="1" transform="matrix(1, 0, 0, 1, 0, 0)" data-type="rect" data-x="0.5" data-y="1.5" data-width="23" data-height="17" d="M0.5 1.5H23.5 V18.5 H0.5 Z"></path><path fill="none" stroke="#303c42" stroke-linecap="round" stroke-linejoin="round" d="M9.5 18.5s.21 4-2 4h9c-2.21 0-2-4-2-4M.5 14.5h23" data-name="Path" stroke-width="1" transform="matrix(1, 0, 0, 1, 0, 0)"></path><path fill="none" stroke="#303c42" stroke-linecap="round" stroke-linejoin="round" data-name="Path" stroke-width="1" transform="matrix(1, 0, 0, 1, 0, 0)" data-type="circle" data-cx="12" data-cy="16.5" data-r="0.5" d="M12,16.5m-0.5,0a0.5,0.5 0 1, 0 1,0a0.5,0.5 0 1, 0 -1,0"></path><path fill="none" stroke="#2e5163" stroke-linecap="round" stroke-linejoin="round" data-name="Path" d="M9.5 5.5 6.5 8l3 2.5M14.5 5.5l3 2.5-3 2.5M10.5 11.5l3-7" stroke-width="1" transform="matrix(1, 0, 0, 1, 0, 0)"></path></g>
	<defs id="_3oyE8vjLEInNXiamIYPIN" transform="matrix(0.8446255326271057, 0, 0, 0.8446255326271057, -64.30472564697266, 190.78501892089844)"></defs>
	<path text="Mover" text-anchor="middle" font-size="100" letter-spacing="0" side="left" offset="0.5" dx="0" dy="0" space="preserve" href="" font-family="Yatra One" font-scale="contain" transform="matrix(0.35285407304763794, 0, 0, 0.43189623951911926, 315.69879150390625, 60.43362808227539)" x="0" y="0" fill="#265396" data-fl-textpath="" id="_fOU6kpe3PPhIlda_Y4qMd" font-weight="400" font-style="normal" d="M-144.25000000000003-66.6L-130.45000000000002-62.6L-109.45000000000003-11.7L-85.15000000000003-66.6L-71.35000000000002-62.6L-71.15000000000003 2.9L-85.15000000000003 0L-85.15000000000003-33.7L-101.65000000000003 2.9L-114.65000000000003 0L-114.55000000000003-0.2L-114.65000000000003-0.1L-130.45000000000002-39.4L-130.25000000000003 2.9L-144.25000000000003 0L-144.25000000000003-66.6ZM-26.05000000000002-37.7L-26.05000000000002-37.7Q-32.65000000000002-42.2 -39.75000000000002-36.3L-39.75000000000002-36.3Q-45.65000000000002-31.3 -47.65000000000002-23L-47.65000000000002-23Q-49.85000000000002-13.5 -44.25000000000002-8.7L-44.25000000000002-8.7Q-43.55000000000002-8.1 -42.75000000000002-7.6L-42.75000000000002-7.6Q-38.75000000000002-5.4 -34.50000000000002-6.6Q-30.25000000000002-7.8 -27.100000000000023-11.9Q-23.950000000000017-16 -22.15000000000002-20.65Q-20.350000000000023-25.3 -21.25000000000002-30.15Q-22.15000000000002-35 -26.05000000000002-37.7ZM-16.05000000000002-36.9L-16.05000000000002-36.9Q-13.15000000000002-34.3 -11.550000000000018-30.65Q-9.950000000000017-27 -9.700000000000017-23.2Q-9.450000000000017-19.4 -10.40000000000002-15.5Q-11.350000000000023-11.6 -13.250000000000021-8.2Q-15.15000000000002-4.8 -18.00000000000002-2.15Q-20.850000000000023 0.5 -24.25000000000002 1.85Q-27.65000000000002 3.2 -31.80000000000002 2.9Q-35.95000000000002 2.6 -40.25000000000002 0.3L-40.25000000000002 0.3Q-45.85000000000002-2.7 -51.25000000000002-7.3L-51.25000000000002-7.3Q-55.55000000000002-11 -57.65000000000002-15.65Q-59.75000000000002-20.3 -59.60000000000002-24.7Q-59.45000000000002-29.1 -57.90000000000002-33.5Q-56.35000000000002-37.9 -53.40000000000002-41.1Q-50.45000000000002-44.3 -46.95000000000002-46.55Q-43.45000000000002-48.8 -39.40000000000002-48.9Q-35.35000000000002-49 -31.55000000000002-47.2L-31.55000000000002-47.2Q-21.850000000000023-42.1 -16.05000000000002-36.9ZM-4.35000000000002-47.8L 8.14999999999998-45L 20.94999999999998-13.9L 34.14999999999998-47.8L 46.64999999999998-45L 28.049999999999983 2.9L 27.94999999999998 2.9L 15.54999999999998 0.1L 15.449999999999982 0.1L-4.35000000000002-47.8ZM 63.14999999999998-19.9L 63.14999999999998-19.9L 85.84999999999998-35.4Q 78.64999999999998-40  73.59999999999998-38.8Q 68.54999999999998-37.6  65.84999999999998-32.55Q 63.14999999999998-27.5  63.14999999999998-19.9ZM 73.24999999999997-16L 65.44999999999997-10.3Q 68.24999999999997-6.9  71.74999999999997-6.1Q 75.24999999999997-5.3  79.09999999999998-7.05Q 82.94999999999997-8.8  85.54999999999998-10.55Q 88.14999999999998-12.3  91.64999999999998-15.2L 91.64999999999998-15.2L 93.64999999999998-13.2Q 95.54999999999998-11.1  97.44999999999997-9L 97.44999999999997-9L 99.44999999999997-7Q 90.74999999999997-0.6  84.74999999999997 1.55Q 78.74999999999997 3.7  72.84999999999998 1.5L 72.84999999999998 1.5Q 64.24999999999997-1.8  56.64999999999998-10.1L 56.64999999999998-10.1Q 52.14999999999998-15.1  51.449999999999974-21.95Q 50.74999999999998-28.8  53.199999999999974-34.7Q 55.64999999999998-40.6  60.799999999999976-44.75Q 65.94999999999997-48.9  72.04999999999998-48.9L 72.04999999999998-48.9Q 76.04999999999998-48.9  83.89999999999998-43.75Q 91.74999999999997-38.6  96.94999999999997-33.7L 96.94999999999997-33.7Q 96.84999999999998-33.4  88.99999999999997-27.55Q 81.14999999999998-21.7  73.24999999999997-16L 73.24999999999997-16ZM 108.35-47.8L 120.85-45L 120.85-37.6Q 128.14999999999998-49.1  133.25-49.1L 133.25-49.1Q 135.75-49.1  141.64999999999998-46.55Q 147.54999999999998-44  151.54999999999998-41.3L 151.54999999999998-41.3L 144.64999999999998-31.3Q 138.45-35.9  133.89999999999998-36.35Q 129.35-36.8  126.64999999999999-34.55Q 123.94999999999999-32.3  120.85-27.3L 120.85-27.3L 120.85 2.9L 108.35 0.1L 108.35-47.8Z"></path>
</svg>